<svg xmlns="http://www.w3.org/2000/svg" xmlns:xlink="http://www.w3.org/1999/xlink" width="875" zoomAndPan="magnify" viewBox="0 0 656.25 299.999988" height="400" preserveAspectRatio="xMidYMid meet" version="1.0"><defs><g/><clipPath id="4d9349822f"><path d="M 0 0.171875 L 651 0.171875 L 651 299.828125 L 0 299.828125 Z M 0 0.171875 " clip-rule="nonzero"/></clipPath><clipPath id="6eca793ce1"><rect x="0" width="651" y="0" height="300"/></clipPath></defs><g clip-path="url(#4d9349822f)"><g transform="matrix(1, 0, 0, 1, 0, 0.000000000000023204)"><g clip-path="url(#6eca793ce1)"><g fill="#000000" fill-opacity="1"><g transform="translate(-7.177231, 246.706819)"><g><path d="M 20.875 0 L 20.875 -189.75 L 157.21875 -189.75 L 156.9375 -154.234375 L 63.703125 -154.234375 L 63.703125 -107.609375 L 149.359375 -107.609375 L 149.359375 -71.828125 L 63.703125 -71.828125 L 63.703125 0 Z M 20.875 0 "/></g></g></g><g fill="#000000" fill-opacity="1"><g transform="translate(154.100521, 246.706819)"><g><path d="M 61.796875 -119.53125 C 66.859375 -128.570312 73.453125 -135.441406 81.578125 -140.140625 C 89.710938 -144.835938 99.203125 -147.273438 110.046875 -147.453125 L 110.046875 -108.15625 C 108.609375 -108.332031 106.441406 -108.421875 103.546875 -108.421875 C 90.710938 -108.421875 80.546875 -104.941406 73.046875 -97.984375 C 65.546875 -91.023438 61.796875 -81.765625 61.796875 -70.203125 L 61.796875 0 L 20.0625 0 L 20.0625 -145.828125 L 61.796875 -145.828125 Z M 61.796875 -119.53125 "/></g></g></g><g fill="#000000" fill-opacity="1"><g transform="translate(266.859445, 246.706819)"><g><path d="M 85.921875 -147.1875 C 101.285156 -147.1875 114.882812 -144.113281 126.71875 -137.96875 C 138.550781 -131.820312 147.722656 -123.144531 154.234375 -111.9375 C 160.742188 -100.738281 164 -87.734375 164 -72.921875 C 164 -58.273438 160.742188 -45.304688 154.234375 -34.015625 C 147.722656 -22.722656 138.550781 -13.957031 126.71875 -7.71875 C 114.882812 -1.488281 101.285156 1.625 85.921875 1.625 C 70.378906 1.625 56.691406 -1.488281 44.859375 -7.71875 C 33.023438 -13.957031 23.851562 -22.722656 17.34375 -34.015625 C 10.84375 -45.304688 7.59375 -58.273438 7.59375 -72.921875 C 7.59375 -87.734375 10.84375 -100.738281 17.34375 -111.9375 C 23.851562 -123.144531 33.023438 -131.820312 44.859375 -137.96875 C 56.691406 -144.113281 70.378906 -147.1875 85.921875 -147.1875 Z M 85.921875 -112.484375 C 75.078125 -112.484375 66.265625 -108.78125 59.484375 -101.375 C 52.710938 -93.96875 49.328125 -84.300781 49.328125 -72.375 C 49.328125 -60.445312 52.710938 -50.773438 59.484375 -43.359375 C 66.265625 -35.953125 75.078125 -32.25 85.921875 -32.25 C 96.585938 -32.25 105.304688 -35.953125 112.078125 -43.359375 C 118.859375 -50.773438 122.25 -60.445312 122.25 -72.375 C 122.25 -84.300781 118.859375 -93.96875 112.078125 -101.375 C 105.304688 -108.78125 96.585938 -112.484375 85.921875 -112.484375 Z M 85.921875 -112.484375 "/></g></g></g><g fill="#ff0000" fill-opacity="1"><g transform="translate(438.44895, 246.706819)"><g><path d="M 65.328125 -96.5 L 2.703125 -190.015625 L 75.890625 -190.015625 L 103.546875 -145.296875 L 131.1875 -190.015625 L 205.1875 -190.015625 L 143.65625 -99.484375 L 210.890625 0 L 135.53125 0 L 103.546875 -49.0625 L 72.109375 0 L -1.359375 0 Z M 65.328125 -96.5 "/></g></g></g></g></g></g></svg>