<svg xmlns="http://www.w3.org/2000/svg" xmlns:xlink="http://www.w3.org/1999/xlink" width="875" zoomAndPan="magnify" viewBox="0 0 656.25 299.999988" height="400" preserveAspectRatio="xMidYMid meet" version="1.0"><defs><g/><clipPath id="ad6b3a36dc"><path d="M 0 0.171875 L 654 0.171875 L 654 299.828125 L 0 299.828125 Z M 0 0.171875 " clip-rule="nonzero"/></clipPath><clipPath id="3d8644a57f"><rect x="0" width="654" y="0" height="300"/></clipPath></defs><g clip-path="url(#ad6b3a36dc)"><g transform="matrix(1, 0, 0, 1, 0, 0.000000000000023204)"><g clip-path="url(#3d8644a57f)"><g fill="#ffffff" fill-opacity="1"><g transform="translate(-14.016117, 248.26401)"><g><path d="M 21.15625 0 L 21.15625 -192.390625 L 159.40625 -192.390625 L 159.140625 -156.390625 L 64.59375 -156.390625 L 64.59375 -109.109375 L 151.4375 -109.109375 L 151.4375 -72.828125 L 64.59375 -72.828125 L 64.59375 0 Z M 21.15625 0 "/></g></g></g><g fill="#ffffff" fill-opacity="1"><g transform="translate(149.515868, 248.26401)"><g><path d="M 62.671875 -121.203125 C 67.796875 -130.367188 74.476562 -137.332031 82.71875 -142.09375 C 90.96875 -146.851562 100.59375 -149.328125 111.59375 -149.515625 L 111.59375 -109.65625 C 110.125 -109.84375 107.921875 -109.9375 104.984375 -109.9375 C 91.972656 -109.9375 81.664062 -106.410156 74.0625 -99.359375 C 66.46875 -92.304688 62.671875 -82.914062 62.671875 -71.1875 L 62.671875 0 L 20.34375 0 L 20.34375 -147.859375 L 62.671875 -147.859375 Z M 62.671875 -121.203125 "/></g></g></g><g fill="#ffffff" fill-opacity="1"><g transform="translate(263.850841, 248.26401)"><g><path d="M 87.125 -149.234375 C 102.695312 -149.234375 116.484375 -146.117188 128.484375 -139.890625 C 140.484375 -133.660156 149.78125 -124.863281 156.375 -113.5 C 162.976562 -102.144531 166.28125 -88.957031 166.28125 -73.9375 C 166.28125 -59.09375 162.976562 -45.941406 156.375 -34.484375 C 149.78125 -23.035156 140.484375 -14.148438 128.484375 -7.828125 C 116.484375 -1.503906 102.695312 1.65625 87.125 1.65625 C 71.363281 1.65625 57.484375 -1.503906 45.484375 -7.828125 C 33.484375 -14.148438 24.1875 -23.035156 17.59375 -34.484375 C 11 -45.941406 7.703125 -59.09375 7.703125 -73.9375 C 7.703125 -88.957031 11 -102.144531 17.59375 -113.5 C 24.1875 -124.863281 33.484375 -133.660156 45.484375 -139.890625 C 57.484375 -146.117188 71.363281 -149.234375 87.125 -149.234375 Z M 87.125 -114.0625 C 76.132812 -114.0625 67.203125 -110.300781 60.328125 -102.78125 C 53.453125 -95.269531 50.015625 -85.472656 50.015625 -73.390625 C 50.015625 -61.296875 53.453125 -51.488281 60.328125 -43.96875 C 67.203125 -36.457031 76.132812 -32.703125 87.125 -32.703125 C 97.9375 -32.703125 106.773438 -36.457031 113.640625 -43.96875 C 120.515625 -51.488281 123.953125 -61.296875 123.953125 -73.390625 C 123.953125 -85.472656 120.515625 -95.269531 113.640625 -102.78125 C 106.773438 -110.300781 97.9375 -114.0625 87.125 -114.0625 Z M 87.125 -114.0625 "/></g></g></g><g fill="#ff0000" fill-opacity="1"><g transform="translate(437.83333, 248.26401)"><g><path d="M 66.234375 -97.84375 L 2.75 -192.671875 L 76.953125 -192.671875 L 104.984375 -147.3125 L 133.03125 -192.671875 L 208.0625 -192.671875 L 145.671875 -100.875 L 213.828125 0 L 137.421875 0 L 104.984375 -49.75 L 73.109375 0 L -1.375 0 Z M 66.234375 -97.84375 "/></g></g></g></g></g></g></svg>